<svg width="21" height="19" viewBox="0 0 21 19" fill="none" xmlns="http://www.w3.org/2000/svg">
<path d="M19.5181 12.3356L19.3545 12.8081L19.3545 12.8081L19.5181 12.3356ZM19.5181 6.66437L19.6817 7.13686L19.6817 7.13686L19.5181 6.66437ZM1.48189 12.3356L1.64548 12.8081L1.64548 12.8081L1.48189 12.3356ZM1.48189 6.66437L1.31831 7.13686L1.31831 7.13686L1.48189 6.66437ZM13.8536 6.85355C14.0488 6.65829 14.0488 6.34171 13.8536 6.14645C13.6583 5.95118 13.3417 5.95118 13.1464 6.14645L13.5 6.5L13.8536 6.85355ZM7.14645 12.1464C6.95118 12.3417 6.95118 12.6583 7.14645 12.8536C7.34171 13.0488 7.65829 13.0488 7.85355 12.8536L7.5 12.5L7.14645 12.1464ZM4.5 18.5V18C2.567 18 1 16.433 1 14.5H0.5H0C0 16.9853 2.01472 19 4.5 19V18.5ZM20.5 14.5H20C20 16.433 18.433 18 16.5 18V18.5V19C18.9853 19 21 16.9853 21 14.5H20.5ZM16.5 0.5V1C18.433 1 20 2.567 20 4.5H20.5H21C21 2.01472 18.9853 0 16.5 0V0.5ZM4.5 0.5V0C2.01472 0 0 2.01472 0 4.5H0.5H1C1 2.567 2.567 1 4.5 1V0.5ZM19.5181 12.3356L19.6817 11.8631C18.7022 11.524 18 10.5934 18 9.5H17.5H17C17 11.0326 17.9847 12.3339 19.3545 12.8081L19.5181 12.3356ZM17.5 9.5H18C18 8.40663 18.7022 7.47598 19.6817 7.13686L19.5181 6.66437L19.3545 6.19189C17.9847 6.66613 17 7.96742 17 9.5H17.5ZM3.5 9.5H3C3 10.5934 2.29781 11.524 1.31831 11.8631L1.48189 12.3356L1.64548 12.8081C3.01525 12.3339 4 11.0326 4 9.5H3.5ZM1.48189 6.66437L1.31831 7.13686C2.29781 7.47598 3 8.40663 3 9.5H3.5H4C4 7.96742 3.01526 6.66613 1.64548 6.19189L1.48189 6.66437ZM20.5 5.5H21V4.5H20.5H20V5.5H20.5ZM20.5 13.5H20V14.5H20.5H21V13.5H20.5ZM0.5 13.5H0V14.5H0.5H1V13.5H0.5ZM0.5 5.5H1V4.5H0.5H0V5.5H0.5ZM16.5 18.5V18H4.5V18.5V19H16.5V18.5ZM16.5 0.5V0H4.5V0.5V1H16.5V0.5ZM1.48189 12.3356L1.31831 11.8631C0.691898 12.08 0 12.6476 0 13.5H0.5H1C1 13.2478 1.22811 12.9526 1.64548 12.8081L1.48189 12.3356ZM19.5181 6.66437L19.6817 7.13686C20.3081 6.91998 21 6.3524 21 5.5H20.5H20C20 5.75217 19.7719 6.04739 19.3545 6.19189L19.5181 6.66437ZM1.48189 6.66437L1.64548 6.19189C1.22811 6.04739 1 5.75217 1 5.5H0.5H0C0 6.3524 0.691899 6.91998 1.31831 7.13686L1.48189 6.66437ZM19.5181 12.3356L19.3545 12.8081C19.7719 12.9526 20 13.2478 20 13.5H20.5H21C21 12.6476 20.3081 12.08 19.6817 11.8631L19.5181 12.3356ZM8.5 6.5H8C8 6.77614 7.77614 7 7.5 7V7.5V8C8.32843 8 9 7.32843 9 6.5H8.5ZM7.5 7.5V7C7.22386 7 7 6.77614 7 6.5H6.5H6C6 7.32843 6.67157 8 7.5 8V7.5ZM6.5 6.5H7C7 6.22386 7.22386 6 7.5 6V5.5V5C6.67157 5 6 5.67157 6 6.5H6.5ZM7.5 5.5V6C7.77614 6 8 6.22386 8 6.5H8.5H9C9 5.67157 8.32843 5 7.5 5V5.5ZM14.5 12.5H14C14 12.7761 13.7761 13 13.5 13V13.5V14C14.3284 14 15 13.3284 15 12.5H14.5ZM13.5 13.5V13C13.2239 13 13 12.7761 13 12.5H12.5H12C12 13.3284 12.6716 14 13.5 14V13.5ZM12.5 12.5H13C13 12.2239 13.2239 12 13.5 12V11.5V11C12.6716 11 12 11.6716 12 12.5H12.5ZM13.5 11.5V12C13.7761 12 14 12.2239 14 12.5H14.5H15C15 11.6716 14.3284 11 13.5 11V11.5ZM13.5 6.5L13.1464 6.14645L7.14645 12.1464L7.5 12.5L7.85355 12.8536L13.8536 6.85355L13.5 6.5Z" fill="#F5DEAE"/>
</svg>
