<svg width="155" height="50" viewBox="0 0 155 50" fill="none" xmlns="http://www.w3.org/2000/svg">
<path d="M21.625 37.2617C22.4099 37.2617 23.0466 37.8977 23.0469 38.6826V40.5781C23.0469 41.3632 22.4101 42 21.625 42C20.8399 42 20.2031 41.3632 20.2031 40.5781V38.6826C20.2034 37.8977 20.8401 37.2617 21.625 37.2617ZM6.66211 34.5771C7.21724 34.022 8.11772 34.022 8.67285 34.5771C9.22792 35.1323 9.22796 36.0328 8.67285 36.5879L7.33203 37.9277C6.7769 38.4826 5.87733 38.4827 5.32227 37.9277C4.76713 37.3726 4.76713 36.4721 5.32227 35.917L6.66211 34.5771ZM34.5771 34.5771C35.1323 34.0222 36.0318 34.0222 36.5869 34.5771L37.9277 35.917C38.4828 36.4721 38.4827 37.3726 37.9277 37.9277C37.3726 38.4829 36.4721 38.4829 35.917 37.9277L34.5771 36.5879C34.022 36.0328 34.022 35.1323 34.5771 34.5771ZM20.875 22.0723V34.5449C20.8486 34.5342 20.821 34.5255 20.7949 34.5137L11.4229 30.2393C10.7102 29.9142 10.253 29.2022 10.2529 28.4189V16.7266C10.2529 16.6058 10.2642 16.4863 10.2852 16.3701L20.875 22.0723ZM32.9629 16.3711C32.9838 16.4871 32.9971 16.606 32.9971 16.7266V28.4189C32.997 29.2022 32.5398 29.9142 31.8271 30.2393L22.4551 34.5137C22.429 34.5256 22.4014 34.5342 22.375 34.5449V22.0723L32.9629 16.3711ZM4.56641 20.2031C5.35149 20.2031 5.98828 20.8399 5.98828 21.625C5.98828 22.4101 5.35148 23.0469 4.56641 23.0469H2.67188C1.8868 23.0469 1.25 22.4101 1.25 21.625C1.25 20.8399 1.8868 20.2031 2.67188 20.2031H4.56641ZM40.5781 20.2031C41.3632 20.2031 42 20.8399 42 21.625C42 22.4101 41.3632 23.0469 40.5781 23.0469H38.6836C37.8985 23.0469 37.2617 22.4101 37.2617 21.625C37.2617 20.8399 37.8985 20.2031 38.6836 20.2031H40.5781ZM20.7949 10.6318C21.3221 10.3914 21.9279 10.3914 22.4551 10.6318L31.8271 14.9062C31.9458 14.9604 32.0566 15.0265 32.1602 15.1006L21.625 20.7725L11.0889 15.0996C11.1925 15.0255 11.3042 14.9604 11.4229 14.9062L20.7949 10.6318ZM5.32227 5.32227C5.87734 4.76719 6.77688 4.7673 7.33203 5.32227L8.67285 6.66211C9.22799 7.21725 9.22798 8.11771 8.67285 8.67285C8.11772 9.22799 7.21724 9.22799 6.66211 8.67285L5.32227 7.33203C4.76731 6.77688 4.76719 5.87734 5.32227 5.32227ZM35.917 5.32227C36.4721 4.76713 37.3726 4.76713 37.9277 5.32227C38.4828 5.8774 38.4829 6.77788 37.9277 7.33301L36.5879 8.67285C36.0328 9.22798 35.1323 9.22796 34.5771 8.67285C34.022 8.11771 34.022 7.21725 34.5771 6.66211L35.917 5.32227ZM21.625 1.25C22.4099 1.25 23.0466 1.88604 23.0469 2.6709V4.56641C23.0469 5.35149 22.4101 5.98828 21.625 5.98828C20.8399 5.98828 20.2031 5.35149 20.2031 4.56641V2.6709C20.2034 1.88604 20.8401 1.25 21.625 1.25Z" fill="#F5DEAE"/>
<path d="M59.1378 28.2686H56.3351V14.2646H59.1378V28.2686ZM64.1281 28.2686H61.462V17.8096H62.1066L62.9855 18.8252C63.4152 18.4346 63.9002 18.1351 64.4406 17.9268C64.9874 17.7119 65.5571 17.6045 66.1495 17.6045C66.7876 17.6045 67.3898 17.7282 67.9562 17.9756C68.5226 18.2165 69.0174 18.5518 69.4406 18.9814C69.8637 19.4046 70.1958 19.9027 70.4366 20.4756C70.684 21.042 70.8077 21.6475 70.8077 22.292V28.2686H68.1417V22.292C68.1417 22.0186 68.0896 21.7614 67.9855 21.5205C67.8813 21.2731 67.7381 21.0583 67.5558 20.876C67.3735 20.6937 67.1619 20.5505 66.921 20.4463C66.6801 20.3421 66.423 20.29 66.1495 20.29C65.8696 20.29 65.6059 20.3421 65.3585 20.4463C65.1111 20.5505 64.8963 20.6937 64.714 20.876C64.5317 21.0583 64.3885 21.2731 64.2843 21.5205C64.1801 21.7614 64.1281 22.0186 64.1281 22.292V28.2686ZM75.2511 28.2686L71.2667 17.8096H74.3038L76.589 24.333L78.8644 17.8096H81.9113L77.9269 28.2686H75.2511ZM86.7745 25.71C86.8787 25.7425 86.9829 25.7653 87.087 25.7783C87.1912 25.7848 87.2954 25.7881 87.3995 25.7881C87.66 25.7881 87.9106 25.7523 88.1515 25.6807C88.3924 25.609 88.617 25.5081 88.8253 25.3779C89.0402 25.2412 89.229 25.0785 89.3917 24.8896C89.561 24.6943 89.6977 24.4795 89.8019 24.2451L91.755 26.208C91.5076 26.5596 91.2212 26.8753 90.8956 27.1553C90.5766 27.4352 90.2283 27.6729 89.8507 27.8682C89.4796 28.0635 89.0857 28.21 88.6691 28.3076C88.2589 28.4118 87.8357 28.4639 87.3995 28.4639C86.6639 28.4639 85.9705 28.3271 85.3195 28.0537C84.6749 27.7803 84.1085 27.3994 83.6202 26.9111C83.1385 26.4229 82.7576 25.8434 82.4777 25.1729C82.1977 24.4958 82.0577 23.7536 82.0577 22.9463C82.0577 22.1195 82.1977 21.3643 82.4777 20.6807C82.7576 19.9971 83.1385 19.4144 83.6202 18.9326C84.1085 18.4508 84.6749 18.0765 85.3195 17.8096C85.9705 17.5426 86.6639 17.4092 87.3995 17.4092C87.8357 17.4092 88.2622 17.4613 88.6788 17.5654C89.0955 17.6696 89.4894 17.8193 89.8605 18.0146C90.2381 18.21 90.5896 18.4508 90.9152 18.7373C91.2407 19.0173 91.5271 19.333 91.7745 19.6846L86.7745 25.71ZM88.1417 20.2119C88.018 20.1663 87.8943 20.137 87.7706 20.124C87.6534 20.111 87.5297 20.1045 87.3995 20.1045C87.035 20.1045 86.6899 20.1729 86.3644 20.3096C86.0454 20.4398 85.7654 20.6286 85.5245 20.876C85.2902 21.1234 85.1046 21.4229 84.9679 21.7744C84.8312 22.1195 84.7628 22.5101 84.7628 22.9463C84.7628 23.0439 84.7661 23.1546 84.7726 23.2783C84.7856 23.402 84.8019 23.529 84.8214 23.6592C84.8475 23.7829 84.8767 23.9033 84.9093 24.0205C84.9419 24.1377 84.9842 24.2419 85.0363 24.333L88.1417 20.2119ZM95.7882 28.2686H93.1222V17.8096H93.7667L94.6456 18.8252C95.0753 18.4346 95.5603 18.1351 96.1007 17.9268C96.6476 17.7119 97.2172 17.6045 97.8097 17.6045C98.4477 17.6045 99.0499 17.7282 99.6163 17.9756C100.183 18.2165 100.678 18.5518 101.101 18.9814C101.524 19.4046 101.856 19.9027 102.097 20.4756C102.344 21.042 102.468 21.6475 102.468 22.292V28.2686H99.8019V22.292C99.8019 22.0186 99.7498 21.7614 99.6456 21.5205C99.5415 21.2731 99.3982 21.0583 99.2159 20.876C99.0337 20.6937 98.8221 20.5505 98.5812 20.4463C98.3403 20.3421 98.0831 20.29 97.8097 20.29C97.5297 20.29 97.2661 20.3421 97.0187 20.4463C96.7713 20.5505 96.5564 20.6937 96.3741 20.876C96.1919 21.0583 96.0486 21.2731 95.9445 21.5205C95.8403 21.7614 95.7882 22.0186 95.7882 22.292V28.2686ZM109.48 28.2686C108.835 28.2686 108.23 28.1481 107.663 27.9072C107.097 27.6598 106.599 27.3245 106.169 26.9014C105.746 26.4717 105.411 25.9736 105.163 25.4072C104.922 24.8408 104.802 24.2354 104.802 23.5908V20.4854H103.503V17.8291H104.802V13.6494H107.458V17.8291H111.501V20.4854H107.458V23.5908C107.458 23.8708 107.51 24.1344 107.614 24.3818C107.719 24.6227 107.862 24.8343 108.044 25.0166C108.226 25.1989 108.441 25.3454 108.689 25.4561C108.936 25.5602 109.2 25.6123 109.48 25.6123H111.501V28.2686H109.48ZM123.112 22.9463C123.112 23.7275 122.972 24.4567 122.693 25.1338C122.413 25.8044 122.032 26.387 121.55 26.8818C121.068 27.3701 120.502 27.7575 119.851 28.0439C119.206 28.3239 118.513 28.4639 117.771 28.4639C117.035 28.4639 116.342 28.3239 115.691 28.0439C115.046 27.7575 114.48 27.3701 113.991 26.8818C113.51 26.387 113.129 25.8044 112.849 25.1338C112.569 24.4567 112.429 23.7275 112.429 22.9463C112.429 22.152 112.569 21.4163 112.849 20.7393C113.129 20.0622 113.51 19.4795 113.991 18.9912C114.48 18.4964 115.046 18.109 115.691 17.8291C116.342 17.5492 117.035 17.4092 117.771 17.4092C118.513 17.4092 119.206 17.5426 119.851 17.8096C120.502 18.07 121.068 18.4443 121.55 18.9326C122.032 19.4144 122.413 19.9971 122.693 20.6807C122.972 21.3577 123.112 22.113 123.112 22.9463ZM120.427 22.9463C120.427 22.5166 120.355 22.1292 120.212 21.7842C120.075 21.4326 119.887 21.1331 119.646 20.8857C119.405 20.6318 119.122 20.4398 118.796 20.3096C118.477 20.1729 118.135 20.1045 117.771 20.1045C117.406 20.1045 117.061 20.1729 116.735 20.3096C116.416 20.4398 116.137 20.6318 115.896 20.8857C115.661 21.1331 115.476 21.4326 115.339 21.7842C115.202 22.1292 115.134 22.5166 115.134 22.9463C115.134 23.3499 115.202 23.7243 115.339 24.0693C115.476 24.4144 115.661 24.7139 115.896 24.9678C116.137 25.2217 116.416 25.4235 116.735 25.5732C117.061 25.7165 117.406 25.7881 117.771 25.7881C118.135 25.7881 118.477 25.7197 118.796 25.583C119.122 25.4463 119.405 25.2542 119.646 25.0068C119.887 24.7594 120.075 24.46 120.212 24.1084C120.355 23.7568 120.427 23.3695 120.427 22.9463ZM127.253 28.2686H124.587V17.8096H125.232L126.11 19.0498C126.54 18.6592 127.028 18.3597 127.575 18.1514C128.122 17.9365 128.689 17.8291 129.275 17.8291H131.628V20.4854H129.275C128.995 20.4854 128.731 20.5374 128.484 20.6416C128.236 20.7458 128.021 20.889 127.839 21.0713C127.657 21.2536 127.513 21.4684 127.409 21.7158C127.305 21.9632 127.253 22.2269 127.253 22.5068V28.2686ZM135.31 32.2529V29.5674L136.794 29.5869C137.054 29.5869 137.305 29.5446 137.546 29.46C137.787 29.3753 138.008 29.2581 138.21 29.1084C138.418 28.9587 138.601 28.7796 138.757 28.5713C138.913 28.3695 139.04 28.1481 139.138 27.9072C138.845 28.0309 138.545 28.1546 138.239 28.2783C137.94 28.402 137.637 28.4639 137.331 28.4639C136.687 28.4639 136.081 28.3499 135.515 28.1221C134.948 27.8942 134.45 27.5719 134.021 27.1553C133.597 26.7321 133.262 26.221 133.015 25.6221C132.774 25.0166 132.653 24.3395 132.653 23.5908V17.8096H135.31V23.5908C135.31 23.9619 135.362 24.2874 135.466 24.5674C135.577 24.8408 135.723 25.0719 135.905 25.2607C136.088 25.443 136.299 25.5798 136.54 25.6709C136.788 25.762 137.051 25.8076 137.331 25.8076C137.605 25.8076 137.862 25.7458 138.103 25.6221C138.35 25.4919 138.565 25.3226 138.747 25.1143C138.929 24.9059 139.073 24.6715 139.177 24.4111C139.281 24.1442 139.333 23.8708 139.333 23.5908V17.8096H142.019V26.9502C142.012 27.6859 141.869 28.376 141.589 29.0205C141.309 29.665 140.925 30.2282 140.437 30.71C139.955 31.1917 139.392 31.5726 138.747 31.8525C138.103 32.1325 137.413 32.2725 136.677 32.2725L135.31 32.2529Z" fill="#F5DEAE"/>
</svg>
