<svg width="66" height="78" viewBox="0 0 66 78" fill="none" xmlns="http://www.w3.org/2000/svg">
<path d="M33 13.8438C49.8447 13.8438 63.5 27.4991 63.5 44.3438C63.5 61.1884 49.8447 74.8438 33 74.8438C16.1553 74.8438 2.5 61.1884 2.5 44.3438C2.5 27.4991 16.1553 13.8438 33 13.8438Z" stroke="#F5DEAE" stroke-linecap="round" stroke-linejoin="round"/>
<path d="M33 11.8438C50.9493 11.8438 65.5 26.3945 65.5 44.3438C65.5 62.293 50.9493 76.8438 33 76.8438C15.0507 76.8438 0.5 62.293 0.5 44.3438C0.5 26.3945 15.0507 11.8438 33 11.8438ZM33 14.8438C16.7076 14.8438 3.5 28.0513 3.5 44.3438C3.5 60.6362 16.7076 73.8438 33 73.8438C49.2924 73.8438 62.5 60.6362 62.5 44.3438C62.5 28.0513 49.2924 14.8438 33 14.8438Z" fill="#F5DEAE" stroke="#F5DEAE" stroke-linecap="round" stroke-linejoin="round"/>
<path fill-rule="evenodd" clip-rule="evenodd" d="M4.38751 56.8659C4.82406 56.5276 5.45219 56.6072 5.79049 57.0438C8.15987 60.1013 17.6776 66.9291 34.5089 66.2317C42.9531 65.8818 48.9793 64.2982 53.0647 62.4946C57.1839 60.6761 59.2561 58.6693 59.9184 57.5386C60.1976 57.062 60.8102 56.902 61.2867 57.1811C61.7633 57.4603 61.9233 58.0729 61.6442 58.5494C60.6857 60.1858 58.1899 62.4182 53.8725 64.3243C49.5213 66.2452 43.2424 67.8715 34.5917 68.23C17.233 68.9493 7.04378 61.9262 4.20961 58.2688C3.87131 57.8323 3.95096 57.2042 4.38751 56.8659Z" fill="#F5DEAE" stroke="#F5DEAE" stroke-linecap="round" stroke-linejoin="round"/>
<path fill-rule="evenodd" clip-rule="evenodd" d="M58.1524 24.7706C58.8141 25.269 58.9466 26.2095 58.4482 26.8712C57.4732 28.1658 55.1434 29.7236 51.377 31.0167C47.5401 32.3341 42.0367 33.4387 34.4844 33.6821C19.3684 34.1692 10.6564 29.6936 7.99994 27.0276C7.4152 26.4408 7.41691 25.491 8.00374 24.9063C8.59058 24.3215 9.54033 24.3232 10.1251 24.9101C11.9943 26.786 19.7677 31.1548 34.3877 30.6836C41.7035 30.4478 46.9022 29.3812 50.4028 28.1793C53.974 26.9532 55.6171 25.6436 56.0518 25.0664C56.5502 24.4047 57.4907 24.2723 58.1524 24.7706Z" fill="#F5DEAE" stroke="#F5DEAE" stroke-linecap="round" stroke-linejoin="round"/>
<path fill-rule="evenodd" clip-rule="evenodd" d="M47.2185 16.1726C47.8653 16.6903 47.97 17.6342 47.4524 18.281C46.7839 19.1164 45.3411 19.9756 43.2283 20.6583C41.0406 21.3652 37.9398 21.9465 33.7214 22.0744C29.466 22.2035 26.1128 21.6738 23.6262 20.9333C21.1794 20.2047 19.4845 19.2449 18.6263 18.4343C18.024 17.8655 17.9969 16.9161 18.5658 16.3138C19.1346 15.7116 20.084 15.6845 20.6862 16.2533C21.0783 16.6236 22.2857 17.404 24.4824 18.0581C26.6393 18.7004 29.6708 19.1959 33.6304 19.0758C37.627 18.9546 40.4394 18.4068 42.3059 17.8037C43.2396 17.502 43.9231 17.1908 44.3947 16.9216C44.6302 16.7871 44.8045 16.6679 44.927 16.5718C44.9878 16.524 45.0326 16.4845 45.064 16.4545C45.0795 16.4396 45.0909 16.4279 45.0987 16.4194C45.1066 16.4109 45.1101 16.4066 45.1101 16.4066C45.6277 15.7598 46.5717 15.655 47.2185 16.1726Z" fill="#F5DEAE" stroke="#F5DEAE" stroke-linecap="round" stroke-linejoin="round"/>
<path d="M32.2339 41.9667C32.5675 41.4987 33.2607 41.464 33.6394 41.8963L33.7148 41.9962L36.1868 45.7308L39.8441 46.285C40.551 46.3919 40.857 47.2402 40.3811 47.7737L37.5858 50.9046L38.4662 54.4275C38.648 55.1552 37.9118 55.7735 37.2266 55.4683L33.5313 53.8219L30.0189 55.8291C29.3676 56.2007 28.5743 55.6593 28.6825 54.9172L29.2057 51.3241L26.1128 48.4878C25.5858 48.0046 25.8056 47.1299 26.4985 46.953L30.0811 46.0364L31.2304 43.8551L32.1679 42.0736L32.2339 41.9667Z" fill="#F5DEAE" stroke="#F5DEAE" stroke-linecap="round" stroke-linejoin="round"/>
<path d="M53.3122 41.1431C53.7232 40.7414 54.4116 40.83 54.7079 41.3224L54.7655 41.4341L55.9357 44.1512L58.1912 44.9194C58.8678 45.1497 59.0192 46.0387 58.4565 46.4796L56.309 48.1601L56.4634 50.4534C56.5137 51.2018 55.6798 51.6801 55.0594 51.2586L52.9095 49.7981L50.4614 50.6681C49.7547 50.9188 49.0696 50.2456 49.3073 49.5343L50.0353 47.3544L48.383 45.1859C47.9497 44.6171 48.3208 43.795 49.034 43.7434L51.4083 43.5708L52.4584 42.2248L53.2292 41.2368L53.3122 41.1431Z" fill="#F5DEAE" stroke="#F5DEAE" stroke-linecap="round" stroke-linejoin="round"/>
<path d="M11.1377 41.237C11.2723 40.6783 11.9026 40.3875 12.4153 40.6471L12.5234 40.7112L14.9587 42.3908L17.2776 41.8428C17.9731 41.6783 18.5738 42.351 18.3315 43.0234L17.4055 45.5884L18.755 47.4488C19.1954 48.0561 18.7433 48.9044 17.9937 48.8771L15.3964 48.7825L13.785 50.8206C13.3195 51.4085 12.3814 51.2024 12.2048 50.4735L11.6629 48.24L9.11082 47.2812C8.44146 47.0297 8.31889 46.1361 8.89561 45.7133L10.8151 44.3053L10.9894 42.607L11.1172 41.3605L11.1377 41.237Z" fill="#F5DEAE" stroke="#F5DEAE" stroke-linecap="round" stroke-linejoin="round"/>
<path d="M35.4893 4.00195C36.661 4.00195 37.6755 4.81612 37.9297 5.95996L39.582 13.3936C39.6382 13.6466 39.4913 13.9004 39.2441 13.9785C34.2898 15.5443 28.9933 14.6338 26.9414 13.9785C26.6951 13.8998 26.5494 13.646 26.6055 13.3936L28.2578 5.95996C28.512 4.81612 29.5265 4.00195 30.6982 4.00195H35.4893Z" fill="#F5DEAE" stroke="#F5DEAE" stroke-linejoin="round"/>
<path d="M35.489 2.00195C37.5981 2.00195 39.4249 3.46663 39.8826 5.52539L41.5339 12.96C41.8149 14.225 41.0831 15.4951 39.8474 15.8857C34.3754 17.6152 28.6341 16.6188 26.3328 15.8838C25.1012 15.4903 24.3728 14.2221 24.6531 12.96L26.3054 5.52539C26.7631 3.46673 28.5891 2.00203 30.698 2.00195H35.489ZM30.698 5.00195C29.995 5.00203 29.3866 5.49051 29.2341 6.17676L27.6824 13.1533C29.7899 13.7279 34.2563 14.363 38.5046 13.1553L36.9539 6.17676C36.8013 5.49045 36.1921 5.00195 35.489 5.00195H30.698Z" fill="#F5DEAE" stroke="#F5DEAE" stroke-linejoin="round"/>
<path fill-rule="evenodd" clip-rule="evenodd" d="M30.7276 5.36336C31.2691 5.47167 31.6203 5.9985 31.512 6.54006L30.8245 9.97756C30.7162 10.5191 30.1894 10.8703 29.6478 10.762C29.1063 10.6537 28.7551 10.1269 28.8634 9.58533L29.5509 6.14783C29.6592 5.60627 30.186 5.25505 30.7276 5.36336Z" fill="#F5DEAE" stroke="#F5DEAE" stroke-linecap="round" stroke-linejoin="round"/>
<path d="M33.2725 0.5C34.4256 0.5 35.3301 1.39834 35.3301 2.46973C35.33 3.54106 34.4256 4.43945 33.2725 4.43945C32.1194 4.43936 31.2149 3.541 31.2148 2.46973C31.2148 1.39839 32.1194 0.500097 33.2725 0.5Z" fill="#F5DEAE" stroke="#F5DEAE"/>
<path d="M32.3691 1.56836C32.6086 1.56858 32.7725 1.75207 32.7725 1.94141C32.7723 2.13062 32.6085 2.31326 32.3691 2.31348C32.1296 2.31348 31.965 2.13073 31.9648 1.94141C31.9648 1.75196 32.1294 1.56836 32.3691 1.56836Z" fill="#F5DEAE" stroke="#F5DEAE"/>
</svg>
