<svg width="21" height="21" viewBox="0 0 21 21" fill="none" xmlns="http://www.w3.org/2000/svg">
<path d="M20.1719 17.3789C20.943 18.15 20.943 19.4008 20.1719 20.1719C19.4008 20.943 18.15 20.943 17.3789 20.1719L15.5068 18.2988C16.5968 17.5438 17.5438 16.5968 18.2988 15.5068L20.1719 17.3789ZM9.25 0C14.3586 0 18.5 4.14137 18.5 9.25C18.5 14.3586 14.3586 18.5 9.25 18.5C4.14137 18.5 0 14.3586 0 9.25C0 4.14137 4.14137 0 9.25 0ZM9.25 1.5C4.96979 1.5 1.5 4.96979 1.5 9.25C1.5 13.5302 4.96979 17 9.25 17C13.5302 17 17 13.5302 17 9.25C17 4.96979 13.5302 1.5 9.25 1.5Z" fill="#F5DEAE"/>
</svg>
