<svg width="22" height="22" viewBox="0 0 22 22" fill="none" xmlns="http://www.w3.org/2000/svg">
<path d="M8.78061 2.02141C9.5853 0.326198 11.9103 0.326195 12.715 2.02141L14.1057 4.95118C14.4252 5.62435 15.0429 6.09094 15.7574 6.19888L18.8671 6.66869C20.6665 6.94053 21.3849 9.23954 20.0829 10.5591L17.8327 12.8396C17.3157 13.3636 17.0798 14.1185 17.2018 14.8584L17.733 18.0785C18.0404 19.9418 16.1594 21.3626 14.55 20.4829L11.7686 18.9626C11.1295 18.6133 10.3661 18.6133 9.72697 18.9626L6.94557 20.4829C5.33619 21.3626 3.45523 19.9418 3.76259 18.0786L4.29379 14.8584C4.41585 14.1185 4.17991 13.3636 3.66289 12.8396L1.41268 10.5591C0.110669 9.23954 0.829131 6.94053 2.62846 6.66869L5.73818 6.19888C6.45269 6.09094 7.07037 5.62435 7.38991 4.95118L8.78061 2.02141Z" stroke="#F5DEAE" stroke-width="1.5" stroke-linejoin="round"/>
</svg>
