<svg width="20" height="20" viewBox="0 0 20 20" fill="none" xmlns="http://www.w3.org/2000/svg">
<path fill-rule="evenodd" clip-rule="evenodd" d="M19.7309 14.9554C19.5823 15.1854 19.2532 15.2642 18.9958 15.1314L0.5423 5.61223C0.284919 5.47946 0.196734 5.18541 0.345332 4.95545C0.493931 4.72548 0.823043 4.64669 1.08042 4.77946L19.534 14.2987C19.7914 14.4314 19.8795 14.7255 19.7309 14.9554Z" fill="#F5DEAE"/>
<path fill-rule="evenodd" clip-rule="evenodd" d="M18.8042 11.3242C18.901 11.5753 18.7516 11.8489 18.4705 11.9353L15.5621 12.8296L15.9234 15.509C15.959 15.7727 15.7486 16.0121 15.4536 16.0439C15.1585 16.0757 14.8905 15.8877 14.8549 15.6241L14.4416 12.5589C14.4113 12.3339 14.5609 12.1205 14.8008 12.0468L18.1203 11.026C18.4013 10.9396 18.7075 11.0731 18.8042 11.3242Z" fill="#F5DEAE"/>
<path fill-rule="evenodd" clip-rule="evenodd" d="M5.63355 7.34017C5.66782 7.55672 5.53419 7.76665 5.30836 7.85104L2.50298 8.89934C2.2288 9.00179 1.91357 8.88626 1.7989 8.64128C1.68423 8.39631 1.81354 8.11466 2.08772 8.0122L4.50973 7.10716L4.09699 4.49876C4.05539 4.23583 4.26022 3.99256 4.55449 3.95539C4.84876 3.91821 5.12104 4.10122 5.16264 4.36415L5.63355 7.34017Z" fill="#F5DEAE"/>
<path fill-rule="evenodd" clip-rule="evenodd" d="M19.6943 4.98759C19.842 5.21805 19.7526 5.5118 19.4946 5.64371L1.00151 15.1014C0.743574 15.2333 0.414793 15.1534 0.267155 14.923C0.119516 14.6925 0.208927 14.3988 0.466858 14.2669L18.96 4.80916C19.2179 4.67725 19.5467 4.75713 19.6943 4.98759Z" fill="#F5DEAE"/>
<path fill-rule="evenodd" clip-rule="evenodd" d="M15.717 3.87593C16.0085 3.92761 16.198 4.18065 16.1401 4.44111L15.5415 7.13672L18.3149 8.2061C18.5877 8.31132 18.7135 8.59425 18.5957 8.83806C18.4779 9.08186 18.1613 9.1942 17.8884 9.08899L14.7158 7.86566C14.4829 7.77586 14.3519 7.55294 14.4012 7.33064L15.0845 4.25397C15.1423 3.99351 15.4255 3.82425 15.717 3.87593Z" fill="#F5DEAE"/>
<path fill-rule="evenodd" clip-rule="evenodd" d="M5.23586 12.0405C5.46255 12.123 5.59835 12.3318 5.56632 12.5487L5.1685 15.2422C5.12962 15.5055 4.85924 15.6907 4.5646 15.656C4.26995 15.6212 4.06262 15.3797 4.1015 15.1164L4.44496 12.7909L1.71445 11.797C1.43922 11.6968 1.307 11.4162 1.41913 11.1703C1.53126 10.9244 1.84528 10.8063 2.12051 10.9065L5.23586 12.0405Z" fill="#F5DEAE"/>
<path fill-rule="evenodd" clip-rule="evenodd" d="M9.9517 0C10.2489 0 10.4898 0.215261 10.4898 0.480799V19.5192C10.4898 19.7847 10.2489 20 9.9517 20C9.6545 20 9.41357 19.7847 9.41357 19.5192V0.480799C9.41357 0.215261 9.6545 0 9.9517 0Z" fill="#F5DEAE"/>
<path fill-rule="evenodd" clip-rule="evenodd" d="M6.89671 2.5325C7.09172 2.33213 7.43162 2.31094 7.65589 2.48518L9.97691 4.28846L12.3934 2.66918C12.6311 2.50985 12.9684 2.5529 13.1467 2.76533C13.3251 2.97777 13.2769 3.27913 13.0391 3.43845L10.2748 5.29084C10.0719 5.42682 9.79023 5.41772 9.59882 5.26901L6.94968 3.21081C6.72541 3.03657 6.70169 2.73288 6.89671 2.5325Z" fill="#F5DEAE"/>
<path fill-rule="evenodd" clip-rule="evenodd" d="M9.62029 14.7154C9.81306 14.5807 10.0834 14.5791 10.2781 14.7116L12.6968 16.3582C12.9332 16.5191 12.9789 16.8208 12.7988 17.032C12.6186 17.2432 12.281 17.284 12.0446 17.1231L9.95635 15.7015L7.63445 17.3251C7.4004 17.4888 7.06219 17.4519 6.87902 17.2428C6.69586 17.0337 6.7371 16.7315 6.97115 16.5678L9.62029 14.7154Z" fill="#F5DEAE"/>
<path fill-rule="evenodd" clip-rule="evenodd" d="M6.78775 5.21812C6.93315 5.13726 7.11295 5.12307 7.27197 5.1799L9.97794 6.14698L12.9086 5.37114C13.0558 5.33216 13.2147 5.35124 13.3452 5.42357C13.4757 5.49589 13.5653 5.61458 13.5916 5.74975L14.0217 7.95924L15.9649 9.59899C16.0744 9.69137 16.1355 9.82049 16.1335 9.95502C16.1315 10.0895 16.0665 10.2171 15.9543 10.3069L13.889 11.9579L13.1228 14.6961C13.0845 14.8332 12.9805 14.9483 12.8386 15.0108C12.6967 15.0733 12.5313 15.0768 12.3862 15.0204L9.92276 14.0635L7.23612 14.8316C7.07938 14.8764 6.90831 14.8547 6.77176 14.7726C6.63521 14.6905 6.5482 14.5572 6.53558 14.4106L6.32606 11.977L3.79223 10.5621C3.64176 10.4781 3.54732 10.3332 3.53979 10.1748C3.53226 10.0164 3.61261 9.86484 3.75456 9.76972L6.32391 8.04799L6.53558 5.58943C6.54871 5.43686 6.64235 5.29899 6.78775 5.21812ZM7.55247 6.31582L7.37829 8.33885C7.36641 8.47685 7.28855 8.60357 7.16463 8.68662L5.02815 10.1183L7.12696 11.2903C7.2719 11.3712 7.36519 11.5089 7.37829 11.6611L7.55645 13.7304L9.78761 13.0925C9.91193 13.0569 10.0465 13.063 10.1662 13.1095L12.2328 13.9123L12.885 11.5814C12.9111 11.4881 12.9679 11.4039 13.0482 11.3397L14.8004 9.93897L13.1527 8.54861C13.0683 8.47738 13.0119 8.38366 12.992 8.28145L12.6349 6.44653L10.1045 7.1164C9.98843 7.14713 9.86416 7.14199 9.75176 7.10182L7.55247 6.31582Z" fill="#F5DEAE"/>
</svg>
