<svg width="115" height="80" viewBox="0 0 115 80" fill="none" xmlns="http://www.w3.org/2000/svg">
<path d="M57.083 45.666C75.9985 45.666 91.3327 53.3333 91.333 62.791C91.333 72.2489 75.9988 79.916 57.083 79.916C38.1673 79.916 22.833 72.2489 22.833 62.791C22.8334 53.3333 38.1675 45.666 57.083 45.666ZM25.0117 45.7754C18.3279 50.3069 14.2705 56.265 14.2705 62.792C14.2705 66.4922 15.5746 70.0101 17.9219 73.1885C7.41774 71.0819 0 65.9425 0 59.9375C0.000322188 52.6537 10.9142 46.6448 25.0117 45.7754ZM89.1543 45.7754C103.252 46.6448 114.167 52.6537 114.167 59.9375C114.167 65.9424 106.749 71.0818 96.2451 73.1885C98.5924 70.0101 99.8955 66.4922 99.8955 62.792C99.8955 56.265 95.8382 50.3069 89.1543 45.7754ZM28.541 11.416C29.7179 11.416 30.8536 11.5941 31.9219 11.9248C31.5767 13.604 31.3955 15.3437 31.3955 17.125C31.3956 22.4929 33.0418 27.4764 35.8574 31.5977C33.8762 33.2532 31.3248 34.25 28.541 34.25C22.2359 34.2498 17.125 29.1381 17.125 22.833C17.125 16.5279 22.2359 11.4162 28.541 11.416ZM57.083 0C66.5409 0 74.208 7.66712 74.208 17.125C74.2078 26.5827 66.5408 34.25 57.083 34.25C47.6252 34.25 39.9582 26.5827 39.958 17.125C39.958 7.66712 47.6251 2.57725e-07 57.083 0ZM85.624 11.416C91.9293 11.416 97.041 16.5278 97.041 22.833C97.041 29.1383 91.9293 34.25 85.624 34.25C82.8403 34.2499 80.2888 33.2533 78.3076 31.5977C81.1232 27.4764 82.7704 22.4929 82.7705 17.125C82.7705 15.3437 82.5893 13.604 82.2441 11.9248C83.3122 11.5942 84.4474 11.4161 85.624 11.416Z" fill="#74BAE6"/>
</svg>
