<svg width="112" height="126" viewBox="0 0 112 126" fill="none" xmlns="http://www.w3.org/2000/svg">
<rect x="22" y="14" width="69" height="112" fill="white"/>
<path fill-rule="evenodd" clip-rule="evenodd" d="M89.6 14H22.4C10.0288 14 0 24.0288 0 36.4V103.6C0 114.04 7.14178 122.811 16.8062 125.296C18.5942 125.756 20.4686 126 22.4 126H89.6C91.5314 126 93.4058 125.756 95.1938 125.296C104.858 122.811 112 114.04 112 103.6V36.4C112 24.0288 101.971 14 89.6 14ZM56 75.6C69.7853 75.6 81.6382 84.5945 86.8645 97.48C89.3148 103.521 84.0374 109.2 77.5179 109.2H34.4821C27.9626 109.2 22.6852 103.521 25.1355 97.48C30.3618 84.5945 42.2147 75.6 56 75.6ZM56 30.8C65.2784 30.8 72.8 38.3216 72.8 47.6C72.8 56.8784 65.2784 64.4 56 64.4C46.7216 64.4 39.2 56.8784 39.2 47.6C39.2 38.3216 46.7216 30.8 56 30.8Z" fill="#EFEFEF"/>
<path fill-rule="evenodd" clip-rule="evenodd" d="M38.7558 2.10601C39.2498 3.09397 38.8494 4.29531 37.8614 4.78929C35.228 6.10602 29.0746 12.2386 31.8319 26.0257C32.4185 28.9585 34.5647 31.8246 37.2121 34.2596C39.8265 36.6644 42.6778 38.418 44.223 39.164C45.2177 39.6442 45.6348 40.8399 45.1546 41.8346C44.6744 42.8293 43.4787 43.2464 42.484 42.7662C40.5994 41.8564 37.4189 39.8845 34.5042 37.2037C31.6225 34.5531 28.7423 30.9734 27.9096 26.8101C24.8482 11.5027 31.6098 3.44296 36.0726 1.21158C37.0605 0.717605 38.2619 1.11805 38.7558 2.10601Z" fill="#DA844B"/>
<path fill-rule="evenodd" clip-rule="evenodd" d="M38.8616 2.553C39.1085 3.04698 38.9083 3.64766 38.4143 3.89465C35.3236 5.44003 29.0181 12.0544 31.8515 26.2216C32.4996 29.462 34.8293 32.5065 37.5353 34.9954C40.2248 37.4692 43.1583 39.2774 44.7884 40.0643C45.2857 40.3044 45.4943 40.9023 45.2542 41.3996C45.0141 41.897 44.4162 42.1055 43.9189 41.8654C42.1191 40.9966 39.0209 39.0793 36.1813 36.4674C33.3582 33.8708 30.6615 30.4695 29.8903 26.6138C26.9049 11.6865 33.5145 4.1085 37.5199 2.10579C38.0139 1.8588 38.6146 2.05903 38.8616 2.553Z" fill="#BD6B34"/>
<path fill-rule="evenodd" clip-rule="evenodd" d="M19.1146 30.0097C19.4822 28.9681 20.6246 28.4217 21.6662 28.7894C22.4986 29.0832 24.0727 29.4714 25.8877 29.584C27.7107 29.697 29.614 29.5218 31.2118 28.8371C32.2271 28.4019 33.4028 28.8723 33.8379 29.8875C34.2731 30.9028 33.8027 32.0785 32.7875 32.5136C30.4114 33.532 27.8204 33.7115 25.64 33.5763C23.4516 33.4405 21.5131 32.9772 20.3349 32.5613C19.2933 32.1937 18.7469 31.0513 19.1146 30.0097Z" fill="#DA844B"/>
<path fill-rule="evenodd" clip-rule="evenodd" d="M39.6351 14.557C40.6987 14.8548 41.3196 15.9585 41.0217 17.0222C40.555 18.6891 39.5303 21.1466 37.9047 23.198C36.2873 25.239 33.8035 27.1914 30.4629 26.9949C29.3603 26.9301 28.519 25.9836 28.5838 24.8809C28.6487 23.7783 29.5952 22.937 30.6978 23.0018C32.1827 23.0892 33.5426 22.2622 34.7697 20.7137C35.9884 19.1757 36.8087 17.2335 37.1699 15.9437C37.4677 14.88 38.5714 14.2592 39.6351 14.557Z" fill="#DA844B"/>
<path fill-rule="evenodd" clip-rule="evenodd" d="M20.9777 10.2619C22.0623 10.0533 23.1108 10.7636 23.3194 11.8483C23.5765 13.1852 24.2539 15.2145 25.387 16.8549C26.5171 18.491 27.8768 19.451 29.516 19.451C30.6205 19.451 31.516 20.3464 31.516 21.451C31.516 22.5556 30.6205 23.451 29.516 23.451C26.0459 23.451 23.6209 21.336 22.0959 19.1283C20.5739 16.925 19.7256 14.3418 19.3913 12.6037C19.1827 11.519 19.893 10.4705 20.9777 10.2619Z" fill="#DA844B"/>
<path fill-rule="evenodd" clip-rule="evenodd" d="M37.5745 9.30054C38.4057 10.0279 38.49 11.2914 37.7626 12.1227C37.2003 12.7653 36.2344 13.611 35.0169 14.2685C33.7973 14.9272 32.171 15.4784 30.3596 15.2771C29.2618 15.1551 28.4708 14.1663 28.5927 13.0685C28.7147 11.9707 29.7035 11.1796 30.8014 11.3016C31.5446 11.3842 32.3429 11.1666 33.1161 10.749C33.8914 10.3303 34.4867 9.79219 34.7523 9.48868C35.4797 8.65741 36.7432 8.57317 37.5745 9.30054Z" fill="#DA844B"/>
<path fill-rule="evenodd" clip-rule="evenodd" d="M27.5159 3.41992C28.6204 3.41992 29.5159 4.31535 29.5159 5.41992C29.5159 5.81193 29.5721 6.52153 29.7434 7.22837C29.9278 7.98898 30.173 8.44192 30.3493 8.61824C31.1304 9.39928 31.1304 10.6656 30.3493 11.4467C29.5683 12.2277 28.3019 12.2277 27.5209 11.4467C26.5618 10.4876 26.0974 9.16648 25.856 8.17077C25.6016 7.12131 25.5159 6.09234 25.5159 5.41992C25.5159 4.31535 26.4113 3.41992 27.5159 3.41992Z" fill="#DA844B"/>
<path fill-rule="evenodd" clip-rule="evenodd" d="M32.0926 6.61601C32.5809 6.87399 32.7677 7.479 32.5097 7.96732C31.4009 10.066 29.0068 15.7741 29.6839 23.2222C29.7339 23.7722 29.3285 24.2586 28.7785 24.3086C28.2285 24.3586 27.7421 23.9533 27.6921 23.4032C26.9692 15.4513 29.5167 9.35109 30.7413 7.03308C30.9993 6.54475 31.6043 6.35802 32.0926 6.61601Z" fill="#FAA973"/>
<path fill-rule="evenodd" clip-rule="evenodd" d="M71.5982 1.10601C71.1042 2.09397 71.5046 3.29531 72.4926 3.78929C75.126 5.10602 81.2794 11.2386 78.5221 25.0257C77.9355 27.9585 75.7893 30.8246 73.1419 33.2596C70.5275 35.6644 67.6762 37.418 66.131 38.164C65.1363 38.6442 64.7192 39.8399 65.1994 40.8346C65.6796 41.8293 66.8753 42.2464 67.87 41.7662C69.7546 40.8564 72.9351 38.8845 75.8498 36.2037C78.7315 33.5531 81.6117 29.9734 82.4444 25.8101C85.5058 10.5027 78.7442 2.44296 74.2815 0.211585C73.2935 -0.282395 72.0921 0.118052 71.5982 1.10601Z" fill="#DA844B"/>
<path fill-rule="evenodd" clip-rule="evenodd" d="M73.4925 1.553C73.2455 2.04698 73.4457 2.64766 73.9397 2.89465C77.0304 4.44003 83.3359 11.0544 80.5025 25.2216C79.8544 28.462 77.5247 31.5065 74.8187 33.9954C72.1292 36.4692 69.1957 38.2774 67.5656 39.0643C67.0683 39.3044 66.8597 39.9023 67.0998 40.3996C67.3399 40.897 67.9378 41.1055 68.4351 40.8654C70.2349 39.9966 73.3331 38.0793 76.1727 35.4674C78.9958 32.8708 81.6925 29.4695 82.4637 25.6138C85.4491 10.6865 78.8395 3.1085 74.8341 1.10579C74.3401 0.858803 73.7394 1.05903 73.4925 1.553Z" fill="#BD6B34"/>
<path fill-rule="evenodd" clip-rule="evenodd" d="M91.2394 29.0097C90.8718 27.9681 89.7294 27.4217 88.6878 27.7894C87.8554 28.0832 86.2813 28.4714 84.4663 28.584C82.6433 28.697 80.74 28.5218 79.1422 27.8371C78.1269 27.4019 76.9512 27.8723 76.5161 28.8875C76.081 29.9028 76.5513 31.0785 77.5665 31.5136C79.9426 32.532 82.5336 32.7115 84.714 32.5763C86.9024 32.4405 88.8409 31.9772 90.0191 31.5613C91.0607 31.1937 91.6071 30.0513 91.2394 29.0097Z" fill="#DA844B"/>
<path fill-rule="evenodd" clip-rule="evenodd" d="M70.7189 13.557C69.6553 13.8548 69.0344 14.9585 69.3323 16.0222C69.799 17.6891 70.8237 20.1466 72.4493 22.198C74.0667 24.239 76.5505 26.1914 79.8911 25.9949C80.9937 25.9301 81.835 24.9836 81.7702 23.8809C81.7053 22.7783 80.7588 21.937 79.6562 22.0018C78.1714 22.0892 76.8114 21.2622 75.5843 19.7137C74.3656 18.1757 73.5453 16.2335 73.1841 14.9437C72.8863 13.88 71.7826 13.2592 70.7189 13.557Z" fill="#DA844B"/>
<path fill-rule="evenodd" clip-rule="evenodd" d="M89.3763 9.26194C88.2917 9.05335 87.2432 9.76357 87.0346 10.8483C86.7775 12.1852 86.1001 14.2145 84.967 15.8549C83.8369 17.491 82.4772 18.451 80.838 18.451C79.7335 18.451 78.838 19.3464 78.838 20.451C78.838 21.5556 79.7335 22.451 80.838 22.451C84.3081 22.451 86.7331 20.336 88.2581 18.1283C89.7801 15.925 90.6284 13.3418 90.9627 11.6037C91.1713 10.519 90.461 9.47054 89.3763 9.26194Z" fill="#DA844B"/>
<path fill-rule="evenodd" clip-rule="evenodd" d="M72.7795 7.30054C71.9483 8.0279 71.864 9.29143 72.5914 10.1227C73.1537 10.7653 74.1196 11.611 75.3371 12.2685C76.5567 12.9272 78.183 13.4784 79.9944 13.2771C81.0922 13.1551 81.8833 12.1663 81.7613 11.0685C81.6393 9.97068 80.6505 9.17961 79.5526 9.30159C78.8094 9.38418 78.0111 9.16662 77.2379 8.74901C76.4626 8.33031 75.8673 7.79219 75.6017 7.48868C74.8743 6.65741 73.6108 6.57317 72.7795 7.30054Z" fill="#DA844B"/>
<path fill-rule="evenodd" clip-rule="evenodd" d="M81.8381 1.41992C80.7336 1.41992 79.8381 2.31535 79.8381 3.41992C79.8381 3.81193 79.7819 4.52153 79.6106 5.22837C79.4262 5.98898 79.181 6.44192 79.0047 6.61824C78.2236 7.39928 78.2236 8.66561 79.0047 9.44666C79.7857 10.2277 81.0521 10.2277 81.8331 9.44666C82.7922 8.48758 83.2566 7.16648 83.498 6.17077C83.7524 5.12131 83.8381 4.09234 83.8381 3.41992C83.8381 2.31535 82.9427 1.41992 81.8381 1.41992Z" fill="#DA844B"/>
<path d="M60 50.0962C60 51.9548 58.2091 54 56 54C53.7909 54 52 51.9548 52 50.0962C52 48.2375 53.7909 47 56 47C58.2091 47 60 48.2375 60 50.0962Z" fill="#D94A1D"/>
<path fill-rule="evenodd" clip-rule="evenodd" d="M54.8998 48.2562C55.0774 48.5256 55.0126 48.8946 54.7551 49.0804C54.6054 49.1885 54.2386 49.4891 54.0015 49.7868C53.8012 50.0382 53.4441 50.0722 53.2038 49.8626C52.9635 49.6531 52.931 49.2795 53.1313 49.0281C53.4605 48.6147 53.9196 48.2437 54.1121 48.1048C54.3695 47.919 54.7222 47.9868 54.8998 48.2562Z" fill="#FFF8F8"/>
</svg>
