<svg width="22" height="22" viewBox="0 0 22 22" fill="none" xmlns="http://www.w3.org/2000/svg">
<path d="M17.3088 18.2988C16.3154 15.6418 13.7536 13.75 10.75 13.75C7.74638 13.75 5.1846 15.6418 4.19117 18.2988M17.3088 18.2988C19.4172 16.4654 20.75 13.7634 20.75 10.75C20.75 5.22715 16.2728 0.75 10.75 0.75C5.22715 0.75 0.75 5.22715 0.75 10.75C0.75 13.7634 2.08285 16.4654 4.19117 18.2988M17.3088 18.2988C15.5531 19.8256 13.2595 20.75 10.75 20.75C8.24052 20.75 5.94694 19.8256 4.19117 18.2988M13.75 7.75C13.75 9.40685 12.4069 10.75 10.75 10.75C9.09315 10.75 7.75 9.40685 7.75 7.75C7.75 6.09315 9.09315 4.75 10.75 4.75C12.4069 4.75 13.75 6.09315 13.75 7.75Z" stroke="white" stroke-width="1.5" stroke-linejoin="round"/>
</svg>
