<svg width="18" height="21" viewBox="0 0 18 21" fill="none" xmlns="http://www.w3.org/2000/svg">
<path d="M18 16.75C18 18.9591 16.2091 20.75 14 20.75H4C1.79086 20.75 5.23466e-08 18.9591 0 16.75V8.5H18V16.75ZM5 12.75C4.44772 12.75 4 13.1977 4 13.75C4 14.3023 4.44772 14.75 5 14.75C5.55228 14.75 6 14.3023 6 13.75C6 13.1977 5.55228 12.75 5 12.75ZM9 12.75C8.44772 12.75 8 13.1977 8 13.75C8 14.3023 8.44772 14.75 9 14.75C9.55228 14.75 10 14.3023 10 13.75C10 13.1977 9.55228 12.75 9 12.75ZM13 12.75C12.4477 12.75 12 13.1977 12 13.75C12 14.3023 12.4477 14.75 13 14.75C13.5523 14.75 14 14.3023 14 13.75C14 13.1977 13.5523 12.75 13 12.75ZM13 0C13.4142 0 13.75 0.335786 13.75 0.75V2.25H14C16.2091 2.25 18 4.04086 18 6.25V7H0V6.25C0 4.04086 1.79086 2.25 4 2.25H4.25V0.75C4.25 0.335786 4.58579 2.11235e-08 5 0C5.41421 -2.11235e-08 5.75 0.335786 5.75 0.75V2.25H12.25V0.75C12.25 0.335786 12.5858 0 13 0Z" fill="#28303F"/>
</svg>
