<svg width="47" height="49" viewBox="0 0 47 49" fill="none" xmlns="http://www.w3.org/2000/svg">
<path d="M17.5 41.416C19.4327 41.4162 20.9998 42.9833 21 44.916C21 46.8489 19.4328 48.4158 17.5 48.416C15.567 48.416 14 46.849 14 44.916C14.0002 42.9832 15.5671 41.416 17.5 41.416ZM38.5 41.416C40.4327 41.4162 41.9998 42.9833 42 44.916C42 46.8489 40.4328 48.4158 38.5 48.416C36.567 48.416 35 46.849 35 44.916C35.0002 42.9832 36.5671 41.416 38.5 41.416ZM6.41602 0C9.95973 0 12.8328 2.87234 12.833 6.41602H42.666C44.875 6.41602 46.6658 8.20703 46.666 10.416V32.75C46.6658 34.959 44.875 36.75 42.666 36.75H13.333C11.124 36.75 9.33318 34.959 9.33301 32.75V6.41602C9.33283 4.80533 8.02674 3.5 6.41602 3.5H1.75C0.78361 3.5 0.000175987 2.71635 0 1.75C0 0.783502 0.783502 0 1.75 0H6.41602ZM22.166 20.833C21.752 20.8332 21.416 21.1689 21.416 21.583C21.416 21.9971 21.752 22.3328 22.166 22.333H33.833C34.2472 22.333 34.583 21.9972 34.583 21.583C34.583 21.1688 34.2472 20.833 33.833 20.833H22.166Z" fill="#0080FC"/>
</svg>
