<svg width="52" height="51" viewBox="0 0 52 51" fill="none" xmlns="http://www.w3.org/2000/svg">
<path d="M7.47974 16.3125C9.68888 16.3125 11.4797 18.1034 11.4797 20.3125V46.1455C11.4797 48.3546 9.68882 50.1455 7.47974 50.1455H5.81274C3.60387 50.1453 1.81283 48.3544 1.81274 46.1455V20.3125C1.81274 18.1035 3.60382 16.3128 5.81274 16.3125H7.47974ZM26.8127 25.9785C29.0218 25.9785 30.8127 27.7695 30.8127 29.9785V46.1455C30.8127 48.3546 29.0218 50.1455 26.8127 50.1455H25.1467C22.9376 50.1455 21.1468 48.3546 21.1467 46.1455V29.9785C21.1468 27.7695 22.9376 25.9785 25.1467 25.9785H26.8127ZM46.1467 35.6455C48.3558 35.6455 50.1467 37.4364 50.1467 39.6455V46.1455C50.1466 48.3546 48.3558 50.1455 46.1467 50.1455H44.4797C42.2708 50.1454 40.4798 48.3545 40.4797 46.1455V39.6455C40.4797 37.4365 42.2707 35.6457 44.4797 35.6455H46.1467ZM2.04321 0.0146484C10.5458 1.10113 17.4227 2.71276 24.6282 6.05469C31.6736 9.32242 38.9503 14.2056 48.3342 21.7227V18.7285C48.3344 17.7277 49.1458 16.916 50.1467 16.916C51.1476 16.9161 51.959 17.7277 51.9592 18.7285V23.5625C51.9591 25.8981 50.0653 27.791 47.7297 27.791H42.8967C41.8957 27.791 41.0842 26.9795 41.0842 25.9785C41.0844 24.9777 41.8958 24.166 42.8967 24.166H45.5852C36.5362 16.9496 29.6498 12.3793 23.1028 9.34277C16.3425 6.20738 9.85696 4.66757 1.58325 3.61035C0.590434 3.48336 -0.111976 2.5749 0.0148926 1.58203C0.141958 0.589295 1.0504 -0.112213 2.04321 0.0146484Z" fill="#FEB000"/>
</svg>
