<svg width="24" height="24" viewBox="0 0 24 24" fill="none" xmlns="http://www.w3.org/2000/svg">
<path d="M2 1.25C2.41421 1.25 2.75 1.58579 2.75 2V18C2.75 19.7949 4.20507 21.25 6 21.25H22C22.4142 21.25 22.75 21.5858 22.75 22C22.75 22.4142 22.4142 22.75 22 22.75H6C3.37665 22.75 1.25 20.6234 1.25 18V2C1.25 1.58579 1.58579 1.25 2 1.25ZM20.4082 8.54004C20.6625 8.21308 21.134 8.1539 21.4609 8.4082C21.7876 8.66257 21.846 9.1341 21.5918 9.46094L17.8359 14.2891C17.0686 15.2755 15.5974 15.2756 14.8301 14.2891L11.8643 10.4756C11.7642 10.3469 11.5698 10.3469 11.4697 10.4756L7.5918 15.4609C7.33746 15.7875 6.86686 15.8458 6.54004 15.5918C6.21314 15.3375 6.15408 14.867 6.4082 14.54L10.2852 9.55469C10.9858 8.65388 12.3472 8.65388 13.0479 9.55469L16.0146 13.3682C16.1814 13.5825 16.4856 13.5826 16.6523 13.3682L20.4082 8.54004Z" fill="#3B4668"/>
</svg>
