<svg width="30" height="30" viewBox="0 0 30 30" fill="none" xmlns="http://www.w3.org/2000/svg">
<rect width="30" height="30" rx="8" fill="#E03137"/>
<path fill-rule="evenodd" clip-rule="evenodd" d="M13.6666 9.5C13.6224 9.5 13.58 9.51756 13.5488 9.54882C13.5175 9.58007 13.5 9.62246 13.5 9.66667V11.1667H16.5V9.66667C16.5 9.62246 16.4824 9.58007 16.4511 9.54882C16.4199 9.51756 16.3775 9.5 16.3333 9.5H13.6666ZM10.8767 12.1667L11.4982 19.6251C11.4994 19.639 11.5 19.6528 11.5 19.6667C11.5 19.8877 11.5878 20.0996 11.744 20.2559C11.9003 20.4122 12.1123 20.5 12.3333 20.5H17.6666C17.8876 20.5 18.0996 20.4122 18.2559 20.2559C18.4122 20.0996 18.5 19.8877 18.5 19.6667C18.5 19.6528 18.5005 19.639 18.5017 19.6251L19.1232 12.1667H10.8767ZM20.1267 12.1667L19.4998 19.6891C19.494 20.1672 19.3015 20.6245 18.963 20.963C18.6192 21.3068 18.1529 21.5 17.6666 21.5H12.3333C11.8471 21.5 11.3807 21.3068 11.0369 20.963C10.6984 20.6245 10.5059 20.1672 10.5001 19.6891L9.87323 12.1667H9.66663C9.39048 12.1667 9.16663 11.9428 9.16663 11.6667C9.16663 11.3905 9.39048 11.1667 9.66663 11.1667H12.5V9.66667C12.5 9.35725 12.6229 9.0605 12.8417 8.84171C13.0605 8.62292 13.3572 8.5 13.6666 8.5H16.3333C16.6427 8.5 16.9395 8.62292 17.1583 8.84171C17.377 9.0605 17.5 9.35725 17.5 9.66667V11.1667H20.3333C20.6094 11.1667 20.8333 11.3905 20.8333 11.6667C20.8333 11.9428 20.6094 12.1667 20.3333 12.1667H20.1267ZM13.6666 13.8333C13.9428 13.8333 14.1666 14.0572 14.1666 14.3333V18.3333C14.1666 18.6095 13.9428 18.8333 13.6666 18.8333C13.3905 18.8333 13.1666 18.6095 13.1666 18.3333V14.3333C13.1666 14.0572 13.3905 13.8333 13.6666 13.8333ZM16.3333 13.8333C16.6094 13.8333 16.8333 14.0572 16.8333 14.3333V18.3333C16.8333 18.6095 16.6094 18.8333 16.3333 18.8333C16.0572 18.8333 15.8333 18.6095 15.8333 18.3333V14.3333C15.8333 14.0572 16.0572 13.8333 16.3333 13.8333Z" fill="white"/>
</svg>
