<svg width="24" height="24" viewBox="0 0 24 24" fill="none" xmlns="http://www.w3.org/2000/svg">
<path d="M7 17.062C8.10457 17.062 9 17.9574 9 19.062C9 20.1666 8.10457 21.062 7 21.062C5.89543 21.062 5 20.1666 5 19.062C5 19.02 5.00136 18.9784 5.00391 18.937C5.06845 17.8907 5.93742 17.062 7 17.062ZM18 17.062C19.1046 17.062 20 17.9574 20 19.062C20 20.1666 19.1046 21.062 18 21.062C16.8954 21.062 16 20.1666 16 19.062C16 17.9574 16.8954 17.062 18 17.062ZM9.5 3.06201C11.7091 3.06201 13.5 4.85287 13.5 7.06201V19.062H10.5C10.5 17.129 8.933 15.562 7 15.562C5.34384 15.562 3.95669 16.7118 3.59277 18.2573C2.6252 17.5272 2 16.3675 2 15.062V7.06201C2 4.85287 3.79086 3.06201 6 3.06201H9.5ZM17.209 7.06201C17.7171 7.06201 18.2065 7.2555 18.5771 7.60303L21.3682 10.2192C21.7714 10.5973 21.9999 11.1255 22 11.6782V17.062C22 17.5981 21.7887 18.0847 21.4453 18.4438C21.1534 16.8057 19.722 15.562 18 15.562C16.7268 15.562 15.6124 16.2419 15 17.2583V7.06201H17.209ZM11.4941 7.49756C11.1825 7.22484 10.7083 7.25627 10.4355 7.56787L7.56543 10.8481C7.47734 10.9486 7.32608 10.9618 7.22168 10.8784L5.46875 9.47607C5.1453 9.21732 4.67282 9.26982 4.41406 9.59326C4.15531 9.91671 4.2078 10.3892 4.53125 10.6479L6.28418 12.0503C7.01546 12.6352 8.07767 12.5402 8.69434 11.8354L11.5645 8.55615C11.8372 8.24447 11.8057 7.77034 11.4941 7.49756Z" fill="#3B4668"/>
</svg>
