<svg width="30" height="30" viewBox="0 0 30 30" fill="none" xmlns="http://www.w3.org/2000/svg">
<rect width="30" height="30" rx="8" fill="#006EC4"/>
<path fill-rule="evenodd" clip-rule="evenodd" d="M14.9999 13.1133C13.956 13.1133 13.1132 13.9561 13.1132 15C13.1132 16.0438 13.956 16.8866 14.9999 16.8866C16.0438 16.8866 16.8866 16.0438 16.8866 15C16.8866 13.9561 16.0438 13.1133 14.9999 13.1133ZM12.1132 15C12.1132 13.4038 13.4038 12.1133 14.9999 12.1133C16.596 12.1133 17.8866 13.4038 17.8866 15C17.8866 16.5961 16.596 17.8866 14.9999 17.8866C13.4038 17.8866 12.1132 16.5961 12.1132 15Z" fill="white"/>
<path fill-rule="evenodd" clip-rule="evenodd" d="M8.50489 12.998C10.0988 10.4924 12.4346 8.97998 14.9999 8.97998C17.5653 8.97998 19.9012 10.4925 21.4951 12.9983C21.8584 13.5678 22.0232 14.2974 22.0232 14.9966C22.0232 15.6959 21.8584 16.4254 21.4951 16.995C19.9012 19.5008 17.5653 21.0133 14.9999 21.0133C12.4345 21.0133 10.0986 19.5008 8.50468 16.995C8.14137 16.4254 7.97656 15.6959 7.97656 14.9966C7.97656 14.2973 8.14143 13.5676 8.50489 12.998ZM14.9999 9.97998C12.8587 9.97998 10.8078 11.2408 9.34844 13.535L9.34802 13.5357C9.11163 13.906 8.97656 14.4361 8.97656 14.9966C8.97656 15.5571 9.11163 16.0873 9.34802 16.4576L9.34844 16.4583C10.8078 18.7525 12.8587 20.0133 14.9999 20.0133C17.1411 20.0133 19.192 18.7525 20.6513 16.4583L20.6518 16.4576C20.8882 16.0873 21.0232 15.5571 21.0232 14.9966C21.0232 14.4361 20.8882 13.906 20.6518 13.5357L20.6513 13.535C19.192 11.2408 17.1411 9.97998 14.9999 9.97998Z" fill="white"/>
</svg>
