<svg width="20" height="22" viewBox="0 0 20 22" fill="none" xmlns="http://www.w3.org/2000/svg">
<path d="M5.75 8.75H13.75M5.75 12.75H13.75M5.75 16.75H9.75M5.75 2.75C5.75 3.85457 6.64543 4.75 7.75 4.75H11.75C12.8546 4.75 13.75 3.85457 13.75 2.75M5.75 2.75C5.75 1.64543 6.64543 0.75 7.75 0.75H11.75C12.8546 0.75 13.75 1.64543 13.75 2.75M5.75 2.75H4.75C2.54086 2.75 0.75 4.54086 0.75 6.75V16.75C0.75 18.9591 2.54086 20.75 4.75 20.75H14.75C16.9591 20.75 18.75 18.9591 18.75 16.75V6.75C18.75 4.54086 16.9591 2.75 14.75 2.75H13.75" stroke="white" stroke-width="1.5" stroke-linecap="round"/>
</svg>
