<svg width="21" height="22" viewBox="0 0 21 22" fill="none" xmlns="http://www.w3.org/2000/svg">
<path d="M13.6499 14.6479H19.6499M16.6499 11.6479V17.6479M18.6499 8.64785V6.64785C18.6495 6.29713 18.557 5.95266 18.3814 5.64901C18.2059 5.34537 17.9536 5.09321 17.6499 4.91785L10.6499 0.917851C10.3459 0.742315 10.001 0.649902 9.6499 0.649902C9.29883 0.649902 8.95394 0.742315 8.6499 0.917851L1.6499 4.91785C1.34616 5.09321 1.09388 5.34537 0.918364 5.64901C0.742845 5.95266 0.650262 6.29713 0.649902 6.64785V14.6479C0.650262 14.9986 0.742845 15.343 0.918364 15.6467C1.09388 15.9503 1.34616 16.2025 1.6499 16.3779L8.6499 20.3779C8.95394 20.5534 9.29883 20.6458 9.6499 20.6458C10.001 20.6458 10.3459 20.5534 10.6499 20.3779L12.6499 19.2379M14.1497 8.04786L5.19971 2.88786M0.939941 5.64786L9.64994 10.6479M9.64994 10.6479L18.3599 5.64786M9.64994 10.6479L9.6499 20.6479" stroke="white" stroke-width="1.3" stroke-linecap="round" stroke-linejoin="round"/>
</svg>
