<svg width="48" height="53" viewBox="0 0 48 53" fill="none" xmlns="http://www.w3.org/2000/svg">
<path d="M22.875 24.0879V52.4688C21.6741 52.3794 20.4841 52.0786 19.3604 51.5596L6.23535 45.4971C2.44371 43.7457 1.40161e-05 39.8384 0 35.5264V16.9736C1.1586e-05 15.5915 0.251727 14.2511 0.717773 13.0098L22.875 24.0879ZM36 47.8125L27.8896 51.5596C26.7659 52.0786 25.5759 52.3794 24.375 52.4688V24.0879L36 18.2754V47.8125ZM46.5312 13.0098C46.9974 14.2512 47.25 15.5914 47.25 16.9736V35.5264C47.25 39.8384 44.8063 43.7457 41.0146 45.4971L37.5 47.1201V17.5254L46.5312 13.0098ZM35.1357 17.0303L23.625 22.7861L1.33887 11.6436C2.42481 9.62839 4.11999 7.98004 6.23535 7.00293L12.0332 4.32422L35.1357 17.0303ZM19.3604 0.94043C22.0753 -0.313516 25.1747 -0.313516 27.8896 0.94043L41.0146 7.00293C43.1296 7.97985 44.8242 9.62795 45.9102 11.6426L36.7666 16.2148L13.7256 3.54297L19.3604 0.94043Z" fill="#FFA8DB"/>
</svg>
