<svg width="24" height="24" viewBox="0 0 24 24" fill="none" xmlns="http://www.w3.org/2000/svg">
<path fill-rule="evenodd" clip-rule="evenodd" d="M17.0001 20.5228C17.0001 21.2303 16.2849 21.7143 15.6281 21.4516L12.3712 20.1488C12.1328 20.0535 11.8665 20.0535 11.6281 20.1488L8.37123 21.4516C7.71438 21.7143 7.00014 21.2303 7.00014 20.5228V17.6859C7.18992 17.7325 7.38585 17.7647 7.58608 17.7807L8.5226 17.8559C8.66313 17.8671 8.79615 17.9226 8.90346 18.0141L9.61928 18.6234C10.991 19.7923 13.0083 19.7921 14.38 18.6234L15.0958 18.0141C15.2032 17.9226 15.3371 17.8671 15.4777 17.8559L16.4142 17.7807C16.6144 17.7647 16.8104 17.7325 17.0001 17.6859V20.5228ZM10.5919 2.51894C11.4031 1.82767 12.5962 1.82767 13.4074 2.51894L14.1232 3.12831C14.4707 3.42432 14.9025 3.60366 15.3576 3.64003L16.2951 3.71425C17.3573 3.79918 18.2005 4.64319 18.2853 5.70546L18.3605 6.64199C18.3968 7.09724 18.576 7.52974 18.8722 7.87734L19.4816 8.59218C20.1728 9.40328 20.1727 10.5965 19.4816 11.4076L18.8722 12.1234C18.5761 12.4709 18.3969 12.9027 18.3605 13.3578L18.2853 14.2953C18.2004 15.3574 17.3572 16.2006 16.2951 16.2855L15.3576 16.3607C14.9024 16.3971 14.4707 16.5763 14.1232 16.8725L13.4074 17.4818C12.5962 18.1729 11.403 18.173 10.5919 17.4818L9.87709 16.8725C9.52949 16.5762 9.097 16.3971 8.64174 16.3607L7.70522 16.2855C6.64295 16.2008 5.79893 15.3575 5.71401 14.2953L5.63979 13.3578C5.60342 12.9028 5.42408 12.4709 5.12807 12.1234L4.5187 11.4076C3.82743 10.5964 3.82743 9.40334 4.5187 8.59218L5.12807 7.87734C5.42429 7.52974 5.60346 7.09724 5.63979 6.64199L5.71401 5.70546C5.79879 4.64308 6.64284 3.79903 7.70522 3.71425L8.64174 3.64003C9.097 3.6037 9.52949 3.42454 9.87709 3.12831L10.5919 2.51894Z" fill="#3B4668"/>
</svg>
