<svg width="24" height="24" viewBox="0 0 24 24" fill="none" xmlns="http://www.w3.org/2000/svg">
<path d="M14 14.5858L12.7071 13.2929C12.3166 12.9024 11.6834 12.9024 11.2929 13.2929L10 14.5858M12 18.5858V13.5858" stroke="white" stroke-width="1.5" stroke-linecap="round"/>
<path d="M8.06891 22H15.9313C17.7726 22 19.3761 20.7429 19.8156 18.9548L21.7821 10.9548C22.4017 8.43408 20.4935 6 17.8977 6H6.10238C3.5066 6 1.59838 8.4341 2.21802 10.9548L4.18455 18.9548C4.6241 20.743 6.22756 22 8.06891 22Z" stroke="white" stroke-width="1.5" stroke-linecap="round" stroke-linejoin="round"/>
<path d="M3 10H21" stroke="white" stroke-width="1.5" stroke-linecap="round"/>
<path d="M8.99976 2L5.99976 6" stroke="white" stroke-width="1.5" stroke-linecap="round" stroke-linejoin="round"/>
<path d="M14.9998 2L17.9998 6" stroke="white" stroke-width="1.5" stroke-linecap="round" stroke-linejoin="round"/>
</svg>
