<svg width="112" height="112" viewBox="0 0 112 112" fill="none" xmlns="http://www.w3.org/2000/svg">
<rect x="22" width="69" height="112" fill="white"/>
<path fill-rule="evenodd" clip-rule="evenodd" d="M89.6 0H22.4C10.0288 0 0 10.0288 0 22.4V89.6C0 100.04 7.14178 108.811 16.8062 111.296C18.5942 111.756 20.4686 112 22.4 112H89.6C91.5314 112 93.4058 111.756 95.1938 111.296C104.858 108.811 112 100.04 112 89.6V22.4C112 10.0288 101.971 0 89.6 0ZM56 61.6C69.7853 61.6 81.6382 70.5945 86.8645 83.48C89.3148 89.5215 84.0374 95.2 77.5179 95.2H34.4821C27.9626 95.2 22.6852 89.5215 25.1355 83.48C30.3618 70.5945 42.2147 61.6 56 61.6ZM56 16.8C65.2784 16.8 72.8 24.3216 72.8 33.6C72.8 42.8784 65.2784 50.4 56 50.4C46.7216 50.4 39.2 42.8784 39.2 33.6C39.2 24.3216 46.7216 16.8 56 16.8Z" fill="#EFEFEF"/>
</svg>
