<svg width="112" height="126" viewBox="0 0 112 126" fill="none" xmlns="http://www.w3.org/2000/svg">
<rect x="22" y="14" width="69" height="112" fill="white"/>
<path fill-rule="evenodd" clip-rule="evenodd" d="M89.6 14H22.4C10.0288 14 0 24.0288 0 36.4V103.6C0 114.04 7.14178 122.811 16.8062 125.296C18.5942 125.756 20.4686 126 22.4 126H89.6C91.5314 126 93.4058 125.756 95.1938 125.296C104.858 122.811 112 114.04 112 103.6V36.4C112 24.0288 101.971 14 89.6 14ZM56 75.6C69.7853 75.6 81.6382 84.5945 86.8645 97.48C89.3148 103.521 84.0374 109.2 77.5179 109.2H34.4821C27.9626 109.2 22.6852 103.521 25.1355 97.48C30.3618 84.5945 42.2147 75.6 56 75.6ZM56 30.8C65.2784 30.8 72.8 38.3216 72.8 47.6C72.8 56.8784 65.2784 64.4 56 64.4C46.7216 64.4 39.2 56.8784 39.2 47.6C39.2 38.3216 46.7216 30.8 56 30.8Z" fill="#EFEFEF"/>
</svg>
